<svg width="30" height="30" viewBox="0 0 30 30" fill="none" xmlns="http://www.w3.org/2000/svg">
<path d="M7.12517 13.9721C7.04229 13.438 6.9993 12.8908 6.9993 12.3337C6.9993 6.44262 11.8063 1.66699 17.7361 1.66699C23.6659 1.66699 28.473 6.44262 28.473 12.3337C28.473 13.6644 28.2277 14.9383 27.7796 16.113C27.6865 16.357 27.6399 16.479 27.6188 16.5742C27.5979 16.6686 27.5898 16.735 27.5875 16.8316C27.5852 16.9291 27.5985 17.0366 27.6249 17.2514L28.1617 21.6117C28.2198 22.0837 28.2488 22.3197 28.1703 22.4913C28.1015 22.6416 27.9793 22.761 27.8275 22.8263C27.6541 22.9009 27.4189 22.8664 26.9483 22.7974L22.7013 22.1749C22.4795 22.1424 22.3686 22.1261 22.2677 22.1267C22.1678 22.1273 22.0986 22.1346 22.0009 22.1552C21.9021 22.176 21.7758 22.2232 21.5233 22.3178C20.3456 22.759 19.0692 23.0003 17.7361 23.0003C17.1786 23.0003 16.6309 22.9581 16.0962 22.8767M9.17479 28.3337C13.128 28.3337 16.3327 25.0504 16.3327 21.0003C16.3327 16.9502 13.128 13.667 9.17479 13.667C5.22159 13.667 2.01689 16.9502 2.01689 21.0003C2.01689 21.8144 2.14638 22.5976 2.38541 23.3293C2.48646 23.6386 2.53698 23.7933 2.55356 23.8989C2.57087 24.0092 2.5739 24.0712 2.56746 24.1826C2.56128 24.2894 2.53457 24.4101 2.48114 24.6514L1.66602 28.3337L5.65909 27.7883C5.87704 27.7586 5.98601 27.7437 6.08117 27.7443C6.18137 27.745 6.23456 27.7504 6.33283 27.77C6.42615 27.7886 6.5649 27.8376 6.84238 27.9355C7.57347 28.1936 8.35816 28.3337 9.17479 28.3337Z" stroke="white" stroke-width="2.5" stroke-linecap="round" stroke-linejoin="round"/>
</svg>
