<svg width="24" height="6" viewBox="0 0 24 6" fill="none" xmlns="http://www.w3.org/2000/svg">
<path d="M12.0007 4.33366C12.737 4.33366 13.334 3.73671 13.334 3.00033C13.334 2.26395 12.737 1.66699 12.0007 1.66699C11.2643 1.66699 10.6673 2.26395 10.6673 3.00033C10.6673 3.73671 11.2643 4.33366 12.0007 4.33366Z" stroke="#2C576E" stroke-opacity="0.65" stroke-width="2.5" stroke-linecap="round" stroke-linejoin="round"/>
<path d="M21.334 4.33366C22.0704 4.33366 22.6673 3.73671 22.6673 3.00033C22.6673 2.26395 22.0704 1.66699 21.334 1.66699C20.5976 1.66699 20.0006 2.26395 20.0006 3.00033C20.0006 3.73671 20.5976 4.33366 21.334 4.33366Z" stroke="#2C576E" stroke-opacity="0.65" stroke-width="2.5" stroke-linecap="round" stroke-linejoin="round"/>
<path d="M2.66732 4.33366C3.4037 4.33366 4.00065 3.73671 4.00065 3.00033C4.00065 2.26395 3.4037 1.66699 2.66732 1.66699C1.93094 1.66699 1.33398 2.26395 1.33398 3.00033C1.33398 3.73671 1.93094 4.33366 2.66732 4.33366Z" stroke="#2C576E" stroke-opacity="0.65" stroke-width="2.5" stroke-linecap="round" stroke-linejoin="round"/>
</svg>
