<svg width="30" height="30" viewBox="0 0 30 30" fill="none" xmlns="http://www.w3.org/2000/svg">
<path d="M5.66602 5.66699C3.45688 5.66699 1.66602 7.45785 1.66602 9.66699V20.3337C1.66602 22.5428 3.45688 24.3337 5.66602 24.3337H17.666C19.4696 24.3337 20.9943 23.14 21.4934 21.4996M21.666 15.0003L26.5118 10.1546C27.0829 9.5834 27.3685 9.29782 27.6137 9.27852C27.8265 9.26178 28.0344 9.3479 28.173 9.51017C28.3327 9.69719 28.3327 10.1011 28.3327 10.9088V19.0918C28.3327 19.8996 28.3327 20.3035 28.173 20.4905C28.0344 20.6528 27.8265 20.7389 27.6137 20.7221C27.3685 20.7028 27.0829 20.4172 26.5118 19.8461L21.666 15.0003ZM21.666 15.0003V12.067C21.666 9.82678 21.666 8.70668 21.23 7.85103C20.8465 7.09838 20.2346 6.48646 19.482 6.10297C18.6263 5.66699 17.5062 5.66699 15.266 5.66699H11.666M1.66602 1.66699L28.3327 28.3337" stroke="#2C576E" stroke-opacity="0.65" stroke-width="2.5" stroke-linecap="round" stroke-linejoin="round"/>
</svg>
