<svg width="13" height="12" viewBox="0 0 13 12" fill="none" xmlns="http://www.w3.org/2000/svg">
<path fill-rule="evenodd" clip-rule="evenodd" d="M12.1569 0.343378C11.7663 -0.0471467 11.1332 -0.0471467 10.7426 0.343378L6.5 4.58602L2.25736 0.343377C1.86684 -0.047147 1.23367 -0.047147 0.843146 0.343377C0.452622 0.733902 0.452622 1.36707 0.843146 1.75759L5.08579 6.00023L0.843146 10.2429C0.452621 10.6334 0.452622 11.2666 0.843146 11.6571C1.23367 12.0476 1.86683 12.0476 2.25736 11.6571L6.5 7.41445L10.7426 11.6571C11.1332 12.0476 11.7663 12.0476 12.1569 11.6571C12.5474 11.2666 12.5474 10.6334 12.1569 10.2429L7.91421 6.00023L12.1569 1.75759C12.5474 1.36707 12.5474 0.733902 12.1569 0.343378Z" fill="#2C576E"/>
</svg>
