<svg width="13" height="14" viewBox="0 0 13 14" fill="none" xmlns="http://www.w3.org/2000/svg">
<path fill-rule="evenodd" clip-rule="evenodd" d="M13 7C13 10.5899 10.0899 13.5 6.5 13.5C2.91015 13.5 0 10.5899 0 7C0 3.41015 2.91015 0.5 6.5 0.5C10.0899 0.5 13 3.41015 13 7ZM12 7C12 10.0376 9.53757 12.5 6.5 12.5C3.46243 12.5 1 10.0376 1 7C1 3.96243 3.46243 1.5 6.5 1.5C9.53757 1.5 12 3.96243 12 7Z" fill="#2D3940" fill-opacity="0.5"/>
<path fill-rule="evenodd" clip-rule="evenodd" d="M6.5 3.5C6.77614 3.5 7 3.72386 7 4V6.5H9.5C9.77614 6.5 10 6.72386 10 7C10 7.27614 9.77614 7.5 9.5 7.5H6.5C6.22386 7.5 6 7.27614 6 7V4C6 3.72386 6.22386 3.5 6.5 3.5Z" fill="#2D3940" fill-opacity="0.5"/>
</svg>
