<svg xmlns="http://www.w3.org/2000/svg" viewBox="0 0 21.1 29.1">
<defs><style>.cls-1{opacity:0.6;}.cls-2{fill:none;stroke:#2c576e;stroke-linecap:round;stroke-linejoin:round;stroke-width:2.5px;}</style></defs>
<g id="Layer_2" data-name="Layer 2"><g id="Layer_1-2" data-name="Layer 1" class="cls-1">
<path class="cls-2" d="M17.05,21.55a9.74,9.74,0,0,1-6.5,2.4m9.3-12.1v2.7a8.33,8.33,0,0,1-.3,2.2m-18.3-4.9v2.7a9.37,9.37,0,0,0,9.3,9.4m0,0v3.9m-5.3,0H16M6.75,4.55a3.59,3.59,0,0,1,3.8-3.3,4,4,0,0,1,4,4v4.6m-.6,6.9a4,4,0,0,1-7.4-2.2v-5m-5.3-5.8,18.6,18.9"/></g>
</g>
</svg>