<svg width="34" height="15" viewBox="0 0 34 15" fill="none" xmlns="http://www.w3.org/2000/svg">
<path d="M23.3797 8.55394C21.3568 7.84342 19.1814 7.45701 16.9156 7.45701C14.6499 7.45701 12.4745 7.84342 10.4515 8.55394C10.2775 8.61506 10.1905 8.64562 10.0945 8.69831C9.75312 8.88558 9.48389 9.2655 9.42033 9.64964C9.40244 9.75773 9.40244 9.86551 9.40244 10.0811C9.40244 10.7403 9.40244 11.0699 9.34447 11.3434C9.12583 12.3747 8.32012 13.1804 7.2888 13.399C7.01533 13.457 6.68571 13.457 6.02649 13.457L5.65904 13.457C4.65694 13.457 4.1559 13.457 3.75075 13.324C2.94499 13.0596 2.31306 12.4277 2.04861 11.6219C1.91564 11.2168 1.91564 10.7157 1.91564 9.71361V9.41637C1.91564 8.4177 1.91564 7.91837 2.0644 7.38825C2.22947 6.8 2.66234 6.06286 3.09564 5.63213C3.48613 5.24396 3.82774 5.0534 4.51095 4.67228C8.18259 2.6241 12.4128 1.45701 16.9156 1.45701C21.4185 1.45701 25.6487 2.6241 29.3203 4.67228C30.0035 5.0534 30.3451 5.24396 30.7356 5.63213C31.1689 6.06286 31.6018 6.8 31.7669 7.38825C31.9156 7.91837 31.9156 8.4177 31.9156 9.41637V9.71361C31.9156 10.7157 31.9156 11.2168 31.7827 11.6219C31.5182 12.4277 30.8863 13.0596 30.0805 13.324C29.6754 13.457 29.1743 13.457 28.1722 13.457H27.8048C27.1456 13.457 26.816 13.457 26.5425 13.399C25.5112 13.1804 24.7054 12.3747 24.4868 11.3434C24.4288 11.0699 24.4288 10.7403 24.4288 10.0811C24.4288 9.86551 24.4288 9.75773 24.411 9.64964C24.3474 9.2655 24.0782 8.88558 23.7368 8.69831C23.6407 8.64562 23.5537 8.61506 23.3797 8.55394Z" stroke="white" stroke-width="2.5" stroke-linecap="round" stroke-linejoin="round"/>
</svg>
