<svg width="30" height="22" viewBox="0 0 30 22" fill="none" xmlns="http://www.w3.org/2000/svg">
<path d="M28.3327 6.90882C28.3327 6.10107 28.3327 5.69719 28.173 5.51017C28.0344 5.3479 27.8265 5.26178 27.6137 5.27852C27.3685 5.29782 27.0829 5.5834 26.5118 6.15457L21.666 11.0003L26.5118 15.8461C27.0829 16.4172 27.3685 16.7028 27.6137 16.7221C27.8265 16.7389 28.0344 16.6528 28.173 16.4905C28.3327 16.3035 28.3327 15.8996 28.3327 15.0918V6.90882Z" stroke="white" stroke-width="2.5" stroke-linecap="round" stroke-linejoin="round"/>
<path d="M1.66602 8.06699C1.66602 5.82678 1.66602 4.70668 2.10199 3.85103C2.48548 3.09838 3.09741 2.48646 3.85005 2.10297C4.7057 1.66699 5.82581 1.66699 8.06602 1.66699H15.266C17.5062 1.66699 18.6263 1.66699 19.482 2.10297C20.2346 2.48646 20.8465 3.09838 21.23 3.85103C21.666 4.70668 21.666 5.82678 21.666 8.06699V13.9337C21.666 16.1739 21.666 17.294 21.23 18.1496C20.8465 18.9023 20.2346 19.5142 19.482 19.8977C18.6263 20.3337 17.5062 20.3337 15.266 20.3337H8.06602C5.82581 20.3337 4.7057 20.3337 3.85005 19.8977C3.09741 19.5142 2.48548 18.9023 2.10199 18.1496C1.66602 17.294 1.66602 16.1739 1.66602 13.9337V8.06699Z" stroke="white" stroke-width="2.5" stroke-linecap="round" stroke-linejoin="round"/>
</svg>
